<svg xmlns="http://www.w3.org/2000/svg" width="16" height="16" viewBox="0 0 16 16">
  <path fill="#00B3BA" fill-rule="evenodd" d="M8.3439,4.734 L13.4729,2.159 L15.0089,3.695 L10.5529,5.934 L15.9999,7.741 L15.9999,9.914 L10.5529,8.106 L10.5529,5.934 L9.8789,6.271 L8.3439,4.734 Z M9.7317,9.8802 L11.2677,8.3442 L13.8417,13.4752 L12.3057,15.0122 L9.7317,9.8802 Z M7.8939,10.5507 L10.0669,10.5507 L8.2589,15.9997 L6.0869,15.9997 L7.8939,10.5507 Z M1.77635684e-15,8.2593 L1.77635684e-15,6.0863 L5.448,7.8943 L5.448,10.0673 L1.77635684e-15,8.2593 Z M5.448,10.0673 L6.12,9.7293 L7.656,11.2663 L2.527,13.8413 L0.991,12.3053 L5.448,10.0673 Z M2.1582,2.5245 L3.6932,0.9885 L6.2682,6.1195 L4.7322,7.6565 L2.1582,2.5245 Z M7.7409,0 L9.9129,0 L8.1059,5.45 L5.9339,5.45 L7.7409,0 Z"/>
</svg>
