<?xml version="1.0" encoding="UTF-8" standalone="no"?>
<svg
   xmlns:dc="http://purl.org/dc/elements/1.1/"
   xmlns:cc="http://creativecommons.org/ns#"
   xmlns:rdf="http://www.w3.org/1999/02/22-rdf-syntax-ns#"
   xmlns:svg="http://www.w3.org/2000/svg"
   xmlns="http://www.w3.org/2000/svg"
   xmlns:sodipodi="http://sodipodi.sourceforge.net/DTD/sodipodi-0.dtd"
   xmlns:inkscape="http://www.inkscape.org/namespaces/inkscape"
   width="16"
   height="16"
   viewBox="0 0 16 16"
   version="1.1"
   id="svg4"
   sodipodi:docname="org.gnome.Chime-symbolic.svg"
   inkscape:version="0.92.3 (2405546, 2018-03-11)">
  <metadata
     id="metadata10">
    <rdf:RDF>
      <cc:Work
         rdf:about="">
        <dc:format>image/svg+xml</dc:format>
        <dc:type
           rdf:resource="http://purl.org/dc/dcmitype/StillImage" />
      </cc:Work>
    </rdf:RDF>
  </metadata>
  <defs
     id="defs8" />
  <sodipodi:namedview
     pagecolor="#ffffff"
     bordercolor="#666666"
     borderopacity="1"
     objecttolerance="10"
     gridtolerance="10"
     guidetolerance="10"
     inkscape:pageopacity="0"
     inkscape:pageshadow="2"
     inkscape:window-width="3440"
     inkscape:window-height="1376"
     id="namedview6"
     showgrid="false"
     inkscape:zoom="14.75"
     inkscape:cx="8.1355932"
     inkscape:cy="8"
     inkscape:window-x="0"
     inkscape:window-y="27"
     inkscape:window-maximized="1"
     inkscape:current-layer="svg4" />
  <path
     d="m 8.3439,4.734 5.129,-2.575 1.536,1.536 -4.456,2.239 5.447,1.807 V 9.914 L 10.5529,8.106 V 5.934 l -0.674,0.337 z m 1.3878,5.1462 1.536,-1.536 2.574,5.131 -1.536,1.537 z m -1.8378,0.6705 h 2.173 l -1.808,5.449 H 6.0869 Z M 0,8.2593 v -2.173 l 5.448,1.808 v 2.173 z m 5.448,1.808 0.672,-0.338 1.536,1.537 -5.129,2.575 -1.536,-1.536 z m -3.2898,-7.5428 1.535,-1.536 2.575,5.131 -1.536,1.537 z M 7.7409,0 h 2.172 l -1.807,5.45 h -2.172 z"
     id="path2"
     style="fill:#b3b3b3;fill-rule:evenodd"
     inkscape:connector-curvature="0" />
</svg>
